<?xml version="1.0" encoding="UTF-8"?>
<!-- Generator: Adobe Illustrator 16.0.3, SVG Export Plug-In . SVG Version: 6.00 Build 0)  -->
<!DOCTYPE svg PUBLIC "-//W3C//DTD SVG 1.1//EN" "http://www.w3.org/Graphics/SVG/1.1/DTD/svg11.dtd">
<svg version="1.1" id="_x3C_Ebene_x3E_" xmlns="http://www.w3.org/2000/svg" xmlns:xlink="http://www.w3.org/1999/xlink" x="0px" y="0px" width="493.985px" height="153.25px" viewBox="0 0 493.985 153.25" enable-background="new 0 0 493.985 153.25" xml:space="preserve">
<path fill="#841439" d="M4.015,92.478c0-14.091,11.422-25.512,25.512-25.512c14.09,0,25.512,11.421,25.512,25.512  c0,14.09-11.421,25.512-25.512,25.512C15.437,117.99,4.015,106.568,4.015,92.478L4.015,92.478z"/>
<path fill="#6F6F6F" d="M71.479,0v117.242h21.395V17.839c0,0,33.069,0,49.005,0v99.403h21.462V17.839c14.13,0,26.156,0,32.593,0  c11.007,0,18.778,6.604,18.778,20.93v78.473h21.413c0-30.773,0-57.613,0-84.402C236.126,16.873,227.89,0,206.713,0H71.479L71.479,0z  "/>
<path fill="#6F6F6F" d="M278.982,0c-23.109,0-30.113,15.349-30.113,32.536c0,18.36,7.629,33.826,28.629,33.826  c18.937,0,36.68,0,50.929,0c15.604,0,15.604,11.994,15.604,17.452c0,5.086,0,15.553-15.212,15.553c-12.156,0-77.949,0-77.949,0  s0,12.883,0,17.875h86.905c21.674,0,27.881-12.732,27.881-33.27c0-24.469-7.99-35.436-26.512-35.436c-21.811,0-37.113,0-54.989,0  c-13.875,0-13.875-9.375-13.875-15.625c0-4.875,1.376-15.072,16.251-15.072c15.624,0,75.125,0,75.125,0c0-7.178,0-11.053,0-17.839  H278.982L278.982,0z"/>
<path fill-rule="evenodd" clip-rule="evenodd" fill="#6F6F6F" d="M421.265,0c-19.083,0-26.184,3.048-31.417,7.221  c-5.71,4.554-10.94,10.335-11.05,29.993v20.941V79.54c0,20.827,5.782,26.653,11.695,31.622c3.982,2.842,10.574,6.08,30.82,6.08  h51.343c0,0,0.027,3.582,0.011,4.531c-0.011,8.848-1.707,12.709-11.846,12.709h-66.927v18.768h73.763  c19.889,0,26.328-8.852,26.328-25.57V0H421.265z M472.667,99.386h-44.895c-13.269,0.078-26.725,1-27.073-16.186  c-0.015-0.711-0.071-7.039,0-25.419c0.061-15.588-0.083-19.313,0-20.927c0.741-14.397,6.055-19.521,28.021-18.996  c1.288,0.031,43.946,0,43.946,0V99.386z"/>
</svg>